<svg xmlns="http://www.w3.org/2000/svg" version="1.1" xmlns:xlink="http://www.w3.org/1999/xlink" viewBox="0 0 200 200" width="200" height="200"><metadata><rdf:RDF xmlns:rdf="http://www.w3.org/1999/02/22-rdf-syntax-ns#" xmlns:dc="http://purl.org/dc/elements/1.1/"><rdf:Description><dc:creator>RealFaviconGenerator</dc:creator><dc:source>https://realfavicongenerator.net</dc:source></rdf:Description></rdf:RDF></metadata><rect width="200" height="200" fill="url('#gradient')"></rect><defs><linearGradient id="gradient" gradientTransform="rotate(0 0.5 0.5)"><stop offset="0%" stop-color="#2379ce"></stop><stop offset="100%" stop-color="#82d0e4"></stop></linearGradient></defs><g><g fill="#000000" transform="matrix(1.4527137961265641,0,0,1.4527137961265641,10.701955418721354,110.75242566863997)" stroke="#ffffff" stroke-width="0"><path d="M10.11-14.22L12.09-5.30L13.72-14.22L17.12-14.22L14.10 0L10.55 0L8.64-8.11L6.78 0L3.23 0L0.21-14.22L3.61-14.22L5.24-5.30L7.20-14.22L10.11-14.22ZM23.12 0.20L23.12 0.20Q20.68 0.20 19.18-1.25Q17.68-2.71 17.68-5.03L17.68-5.03L17.68-5.30Q17.68-6.92 18.28-8.16Q18.88-9.40 20.03-10.08Q21.18-10.76 22.76-10.76L22.76-10.76Q24.99-10.76 26.28-9.38Q27.57-8.00 27.57-5.53L27.57-5.53L27.57-4.25L21.03-4.25Q21.20-3.36 21.80-2.85Q22.39-2.34 23.34-2.34L23.34-2.34Q24.90-2.34 25.78-3.44L25.78-3.44L27.29-1.66Q26.67-0.81 25.54-0.31Q24.41 0.20 23.12 0.20ZM22.74-8.22L22.74-8.22Q21.30-8.22 21.03-6.31L21.03-6.31L24.35-6.31L24.35-6.56Q24.37-7.35 23.95-7.79Q23.53-8.22 22.74-8.22ZM32.36-15L32.36 0L29.06 0L29.06-15L32.36-15ZM37.86-15L37.86 0L34.56 0L34.56-15L37.86-15ZM47.37-3.78L47.37-3.78Q47.37-4.53 46.84-4.95Q46.31-5.37 44.97-5.82Q43.63-6.27 42.78-6.69L42.78-6.69Q40.02-8.05 40.02-10.42L40.02-10.42Q40.02-11.60 40.71-12.50Q41.40-13.41 42.66-13.91Q43.92-14.41 45.49-14.41L45.49-14.41Q47.02-14.41 48.24-13.87Q49.45-13.32 50.13-12.31Q50.80-11.30 50.80-10L50.80-10L47.38-10Q47.38-10.87 46.85-11.35Q46.32-11.83 45.41-11.83L45.41-11.83Q44.49-11.83 43.96-11.42Q43.43-11.02 43.43-10.39L43.43-10.39Q43.43-9.84 44.01-9.40Q44.60-8.96 46.07-8.48Q47.55-8.01 48.50-7.46L48.50-7.46Q50.80-6.13 50.80-3.80L50.80-3.80Q50.80-1.93 49.39-0.87Q47.99 0.20 45.54 0.20L45.54 0.20Q43.81 0.20 42.41-0.42Q41.01-1.04 40.30-2.12Q39.59-3.20 39.59-4.61L39.59-4.61L43.03-4.61Q43.03-3.47 43.62-2.92Q44.21-2.38 45.54-2.38L45.54-2.38Q46.39-2.38 46.88-2.75Q47.37-3.12 47.37-3.78ZM52.95-13.19L56.24-13.19L56.24-10.57L57.98-10.57L57.98-8.28L56.24-8.28L56.24-3.45Q56.24-2.85 56.46-2.62Q56.67-2.38 57.30-2.38L57.30-2.38Q57.79-2.38 58.13-2.44L58.13-2.44L58.13-0.09Q57.24 0.20 56.27 0.20L56.27 0.20Q54.57 0.20 53.76-0.61Q52.95-1.41 52.95-3.04L52.95-3.04L52.95-8.28L51.60-8.28L51.60-10.57L52.95-10.57L52.95-13.19ZM65.72-10.64L65.66-7.59L64.58-7.67Q63.03-7.67 62.59-6.69L62.59-6.69L62.59 0L59.30 0L59.30-10.57L62.38-10.57L62.49-9.21Q63.32-10.76 64.80-10.76L64.80-10.76Q65.33-10.76 65.72-10.64L65.72-10.64ZM71.78 0.20L71.78 0.20Q69.35 0.20 67.84-1.25Q66.34-2.71 66.34-5.03L66.34-5.03L66.34-5.30Q66.34-6.92 66.94-8.16Q67.54-9.40 68.69-10.08Q69.84-10.76 71.43-10.76L71.43-10.76Q73.65-10.76 74.94-9.38Q76.23-8.00 76.23-5.53L76.23-5.53L76.23-4.25L69.69-4.25Q69.86-3.36 70.46-2.85Q71.05-2.34 72.00-2.34L72.00-2.34Q73.56-2.34 74.44-3.44L74.44-3.44L75.95-1.66Q75.33-0.81 74.20-0.31Q73.08 0.20 71.78 0.20ZM71.41-8.22L71.41-8.22Q69.96-8.22 69.69-6.31L69.69-6.31L73.01-6.31L73.01-6.56Q73.03-7.35 72.61-7.79Q72.19-8.22 71.41-8.22ZM86.80 0L83.51 0Q83.33-0.32 83.19-0.95L83.19-0.95Q82.29 0.20 80.65 0.20L80.65 0.20Q79.16 0.20 78.12-0.71Q77.07-1.61 77.07-2.98L77.07-2.98Q77.07-4.70 78.34-5.58Q79.61-6.46 82.03-6.46L82.03-6.46L83.05-6.46L83.05-7.01Q83.05-8.47 81.79-8.47L81.79-8.47Q80.62-8.47 80.62-7.31L80.62-7.31L77.32-7.31Q77.32-8.85 78.63-9.80Q79.93-10.76 81.95-10.76Q83.97-10.76 85.15-9.78Q86.32-8.79 86.35-7.07L86.35-7.07L86.35-2.39Q86.37-0.94 86.80-0.17L86.80-0.17L86.80 0ZM81.45-2.15L81.45-2.15Q82.06-2.15 82.47-2.41Q82.87-2.68 83.05-3.01L83.05-3.01L83.05-4.70L82.09-4.70Q80.37-4.70 80.37-3.15L80.37-3.15Q80.37-2.71 80.67-2.43Q80.98-2.15 81.45-2.15ZM88.19-10.57L91.28-10.57L91.39-9.33Q92.51-10.76 94.40-10.76L94.40-10.76Q96.41-10.76 97.11-9.17L97.11-9.17Q98.18-10.76 100.21-10.76L100.21-10.76Q103.43-10.76 103.52-6.88L103.52-6.88L103.52 0L100.21 0L100.21-6.67Q100.21-7.48 99.94-7.85Q99.67-8.22 98.95-8.22L98.95-8.22Q97.97-8.22 97.49-7.35L97.49-7.35L97.50-7.22L97.50 0L94.20 0L94.20-6.65Q94.20-7.48 93.94-7.85Q93.67-8.22 92.93-8.22L92.93-8.22Q91.98-8.22 91.48-7.35L91.48-7.35L91.48 0L88.19 0L88.19-10.57ZM110.51 0.20L110.51 0.20Q108.08 0.20 106.57-1.25Q105.07-2.71 105.07-5.03L105.07-5.03L105.07-5.30Q105.07-6.92 105.67-8.16Q106.27-9.40 107.42-10.08Q108.57-10.76 110.16-10.76L110.16-10.76Q112.38-10.76 113.67-9.38Q114.96-8.00 114.96-5.53L114.96-5.53L114.96-4.25L108.42-4.25Q108.59-3.36 109.19-2.85Q109.79-2.34 110.73-2.34L110.73-2.34Q112.29-2.34 113.17-3.44L113.17-3.44L114.68-1.66Q114.06-0.81 112.93-0.31Q111.81 0.20 110.51 0.20ZM110.14-8.22L110.14-8.22Q108.69-8.22 108.42-6.31L108.42-6.31L111.74-6.31L111.74-6.56Q111.76-7.35 111.34-7.79Q110.92-8.22 110.14-8.22ZM122.73-10.64L122.68-7.59L121.59-7.67Q120.04-7.67 119.60-6.69L119.60-6.69L119.60 0L116.31 0L116.31-10.57L119.39-10.57L119.50-9.21Q120.33-10.76 121.82-10.76L121.82-10.76Q122.34-10.76 122.73-10.64L122.73-10.64Z"></path></g></g></svg>